<svg width="12" height="12" viewBox="0 0 12 12" fill="none" xmlns="http://www.w3.org/2000/svg">
<g clip-path="url(#clip0_18_2520)">
<path d="M9.83333 2.33337H3.5C3.36739 2.33337 3.24021 2.38605 3.14645 2.47982C3.05268 2.57359 3 2.70077 3 2.83337V10.8334C3 10.966 3.05268 11.0932 3.14645 11.1869C3.24021 11.2807 3.36739 11.3334 3.5 11.3334H9.83333C9.96594 11.3334 10.0931 11.2807 10.1869 11.1869C10.2807 11.0932 10.3333 10.966 10.3333 10.8334V2.83337C10.3333 2.70077 10.2807 2.57359 10.1869 2.47982C10.0931 2.38605 9.96594 2.33337 9.83333 2.33337ZM9.66667 10.6667H3.66667V3.00004H9.66667V10.6667Z" fill="white"/>
<path d="M8.66659 1.16663C8.66659 1.03402 8.61391 0.906841 8.52014 0.813073C8.42637 0.719304 8.29919 0.666626 8.16659 0.666626H1.83325C1.70064 0.666626 1.57347 0.719304 1.4797 0.813073C1.38593 0.906841 1.33325 1.03402 1.33325 1.16663V9.16663C1.33325 9.29923 1.38593 9.42641 1.4797 9.52018C1.57347 9.61395 1.70064 9.66663 1.83325 9.66663H1.99992V1.33329H8.66659V1.16663Z" fill="white"/>
</g>
<defs>
<clipPath id="clip0_18_2520">
<rect width="12" height="12" fill="white"/>
</clipPath>
</defs>
</svg>
