<svg width="20" height="20" viewBox="0 0 20 20" fill="none" xmlns="http://www.w3.org/2000/svg">
<path d="M11.0281 -0.000244141C12.1531 0.00275586 12.7241 0.00875586 13.2171 0.0227559L13.4111 0.0297558C13.6351 0.0377558 13.8561 0.0477558 14.1231 0.0597558C15.1871 0.109756 15.9131 0.277756 16.5501 0.524756C17.2101 0.778756 17.7661 1.12276 18.3221 1.67776C18.8308 2.17749 19.2243 2.78223 19.4751 3.44976C19.7221 4.08676 19.8901 4.81276 19.9401 5.87776C19.9521 6.14376 19.9621 6.36476 19.9701 6.58976L19.9761 6.78376C19.9911 7.27576 19.9971 7.84676 19.9991 8.97176L20.0001 9.71776V11.0278C20.0025 11.7572 19.9948 12.4866 19.9771 13.2158L19.9711 13.4098C19.9631 13.6348 19.9531 13.8558 19.9411 14.1218C19.8911 15.1868 19.7211 15.9118 19.4751 16.5498C19.2243 17.2173 18.8308 17.822 18.3221 18.3218C17.8223 18.8304 17.2176 19.2239 16.5501 19.4748C15.9131 19.7218 15.1871 19.8898 14.1231 19.9398L13.4111 19.9698L13.2171 19.9758C12.7241 19.9898 12.1531 19.9968 11.0281 19.9988L10.2821 19.9998H8.97308C8.24334 20.0023 7.5136 19.9947 6.78408 19.9768L6.59008 19.9708C6.35269 19.9618 6.11535 19.9514 5.87808 19.9398C4.81408 19.8898 4.08808 19.7218 3.45008 19.4748C2.78291 19.2238 2.17852 18.8303 1.67908 18.3218C1.17003 17.8221 0.776189 17.2174 0.525081 16.5498C0.278081 15.9128 0.11008 15.1868 0.0600805 14.1218L0.0300805 13.4098L0.0250806 13.2158C0.00664665 12.4866 -0.00168758 11.7572 8.05157e-05 11.0278V8.97176C-0.00268738 8.24236 0.00464673 7.51295 0.0220806 6.78376L0.0290806 6.58976C0.0370806 6.36476 0.0470805 6.14376 0.0590805 5.87776C0.109081 4.81276 0.27708 4.08776 0.52408 3.44976C0.775775 2.78195 1.1703 2.17719 1.68008 1.67776C2.17923 1.1693 2.78327 0.775829 3.45008 0.524756C4.08808 0.277756 4.81308 0.109756 5.87808 0.0597558C6.14408 0.0477558 6.36608 0.0377558 6.59008 0.0297558L6.78408 0.0237558C7.51327 0.00598857 8.24268 -0.00167884 8.97208 0.000755787L11.0281 -0.000244141ZM10.0001 4.99976C8.674 4.99976 7.40223 5.52654 6.46455 6.46422C5.52686 7.4019 5.00008 8.67367 5.00008 9.99976C5.00008 11.3258 5.52686 12.5976 6.46455 13.5353C7.40223 14.473 8.674 14.9998 10.0001 14.9998C11.3262 14.9998 12.5979 14.473 13.5356 13.5353C14.4733 12.5976 15.0001 11.3258 15.0001 9.99976C15.0001 8.67367 14.4733 7.4019 13.5356 6.46422C12.5979 5.52654 11.3262 4.99976 10.0001 4.99976ZM10.0001 6.99976C10.394 6.99969 10.7842 7.07722 11.1482 7.22793C11.5122 7.37863 11.8429 7.59955 12.1215 7.87808C12.4002 8.15661 12.6212 8.48729 12.772 8.85124C12.9229 9.2152 13.0005 9.60529 13.0006 9.99926C13.0006 10.3932 12.9231 10.7833 12.7724 11.1473C12.6217 11.5113 12.4008 11.8421 12.1223 12.1207C11.8437 12.3993 11.513 12.6204 11.1491 12.7712C10.7851 12.922 10.395 12.9997 10.0011 12.9998C9.20543 12.9998 8.44237 12.6837 7.87976 12.1211C7.31715 11.5585 7.00108 10.7954 7.00108 9.99976C7.00108 9.20411 7.31715 8.44104 7.87976 7.87844C8.44237 7.31583 9.20543 6.99976 10.0011 6.99976M15.2511 3.49976C14.9196 3.49976 14.6016 3.63145 14.3672 3.86587C14.1328 4.10029 14.0011 4.41824 14.0011 4.74976C14.0011 5.08128 14.1328 5.39922 14.3672 5.63364C14.6016 5.86806 14.9196 5.99976 15.2511 5.99976C15.5826 5.99976 15.9005 5.86806 16.135 5.63364C16.3694 5.39922 16.5011 5.08128 16.5011 4.74976C16.5011 4.41824 16.3694 4.10029 16.135 3.86587C15.9005 3.63145 15.5826 3.49976 15.2511 3.49976Z" fill="white"/>
</svg>
